<svg xmlns="http://www.w3.org/2000/svg" viewBox="0 0 64 64"><path d="M28.23 15.41a16.71 16.71 0 0 1 7.53 0l.23 0a1 1 0 0 0 1-1V14a1 1 0 0 0-.11-.45l-4-8a1 1 0 0 0-1.79 0l-4 8A1 1 0 0 0 27 14v.46a1 1 0 0 0 1.23 1zM32 8.21l2.46 4.92a19.06 19.06 0 0 0-4.92 0zM35.77 48.55a16.71 16.71 0 0 1-7.53 0 1 1 0 0 0-1.23 1V50a1 1 0 0 0 .11.45l4 8a1 1 0 0 0 1.79 0l4-8A1 1 0 0 0 37 50v-.46a1 1 0 0 0-1.23-1zM32 55.74l-2.46-4.92a19.15 19.15 0 0 0 4.92 0zM15.49 22.39a1 1 0 0 0 .24.39l.33.33a1 1 0 0 0 .71.29h.11a1 1 0 0 0 .74-.47A16.6 16.6 0 0 1 23 17.6 1 1 0 0 0 23.14 16l-.33-.33a1 1 0 0 0-.39-.24l-8.48-2.82a1 1 0 0 0-1.26 1.26zm4.94-5.48a18.69 18.69 0 0 0-3.49 3.49L15.2 15.18zM48.51 41.56a1 1 0 0 0-.24-.39l-.33-.33a1 1 0 0 0-1.56.18A16.6 16.6 0 0 1 41 46.36a1 1 0 0 0-.18 1.56l.33.33a1 1 0 0 0 .39.24l8.48 2.82A1 1 0 0 0 51.33 50zM43.57 47a18.69 18.69 0 0 0 3.49-3.49l1.74 5.23zM14 37h.46a1 1 0 0 0 1-1.23 16.63 16.63 0 0 1 0-7.53 1 1 0 0 0-1-1.23H14a1 1 0 0 0-.45.11l-8 4a1 1 0 0 0 0 1.79l8 4A1 1 0 0 0 14 37zm-.84-2.54L8.24 32l4.92-2.46a19.06 19.06 0 0 0 0 4.92zM58.45 31.08l-8-4A1 1 0 0 0 50 27h-.46a1 1 0 0 0-1 1.23 16.63 16.63 0 0 1 0 7.53 1 1 0 0 0 1 1.23H50a1 1 0 0 0 .45-.11l8-4a1 1 0 0 0 0-1.79zm-7.61 3.36a19.06 19.06 0 0 0 0-4.92L55.76 32zM23 46.36A16.6 16.6 0 0 1 17.62 41a1 1 0 0 0-1.56-.18l-.33.33a1 1 0 0 0-.24.39L12.67 50a1 1 0 0 0 1.26 1.26l8.48-2.82a1 1 0 0 0 .39-.24l.33-.33A1 1 0 0 0 23 46.36zM15.2 48.78l1.74-5.23A18.69 18.69 0 0 0 20.43 47zM44.47 38.34a14.22 14.22 0 0 0 .85-2.06 14 14 0 0 0 0-8.61 14.29 14.29 0 0 0-.85-2.07 14 14 0 0 0-6.1-6.1 14.07 14.07 0 0 0-12.74 0 14 14 0 0 0-6.1 6.1 14.24 14.24 0 0 0-.85 2.06 14 14 0 0 0 0 8.61 14.29 14.29 0 0 0 .85 2.07 14 14 0 0 0 6.1 6.1 14.24 14.24 0 0 0 2.06.85 14 14 0 0 0 8.61 0 14.29 14.29 0 0 0 2.07-.85A14 14 0 0 0 44.47 38.34zm-7 4.32a12.2 12.2 0 0 1-1.78.73 12 12 0 0 1-14.38-5.95 12.2 12.2 0 0 1-.73-1.78 12 12 0 0 1 0-7.39 12.15 12.15 0 0 1 .73-1.77 12 12 0 0 1 5.22-5.22 12.24 12.24 0 0 1 1.78-.73 12 12 0 0 1 7.39 0 12.15 12.15 0 0 1 1.77.73 12 12 0 0 1 5.22 5.22 12.24 12.24 0 0 1 .73 1.78 12 12 0 0 1 0 7.38h0a12.15 12.15 0 0 1-.73 1.77A12 12 0 0 1 37.47 42.66zM41 17.6a16.6 16.6 0 0 1 5.34 5.34 1 1 0 0 0 .74.47h.11a1 1 0 0 0 .71-.29l.33-.33a1 1 0 0 0 .24-.39l2.82-8.48a1 1 0 0 0-1.26-1.26l-8.48 2.82a1 1 0 0 0-.39.24l-.33.33A1 1 0 0 0 41 17.6zm7.76-2.42l-1.74 5.23a18.69 18.69 0 0 0-3.49-3.49z" data-name="Layer 2"/></svg>